<?xml version="1.0" encoding="UTF-8" standalone="no"?>
<!-- Created with Inkscape (http://www.inkscape.org/) -->

<svg
   xmlns:dc="http://purl.org/dc/elements/1.1/"
   xmlns:cc="http://creativecommons.org/ns#"
   xmlns:rdf="http://www.w3.org/1999/02/22-rdf-syntax-ns#"
   xmlns:svg="http://www.w3.org/2000/svg"
   xmlns="http://www.w3.org/2000/svg"
   xmlns:xlink="http://www.w3.org/1999/xlink"
   xmlns:sodipodi="http://sodipodi.sourceforge.net/DTD/sodipodi-0.dtd"
   xmlns:inkscape="http://www.inkscape.org/namespaces/inkscape"
   width="88.750717mm"
   height="57.451473mm"
   viewBox="0 0 88.750717 57.451473"
   version="1.1"
   id="svg8"
   sodipodi:docname="bike.svg"
   inkscape:version="0.92.3 (2405546, 2018-03-11)">
  <defs
     id="defs2">
    <path
       id="a1awsRHjJK"
       d="m 196.49,332.49 c 0,18.42 -14.95,33.36 -33.36,33.36 -18.41,0 -33.36,-14.94 -33.36,-33.36 0,-18.41 14.95,-33.36 33.36,-33.36 18.41,0 33.36,14.95 33.36,33.36 z"
       inkscape:connector-curvature="0" />
    <path
       id="a7KOLuLiu"
       d="m 339.94,332.49 c 0,18.42 -14.95,33.36 -33.36,33.36 -18.42,0 -33.36,-14.94 -33.36,-33.36 0,-18.41 14.94,-33.36 33.36,-33.36 18.41,0 33.36,14.95 33.36,33.36 z"
       inkscape:connector-curvature="0" />
    <path
       id="f2CTrcp1fL"
       d="m 260.43,229.93 c -2.84,4.25 0.94,13 11.34,26.24 10.4,13.24 21.28,38.68 32.63,76.32"
       inkscape:connector-curvature="0" />
    <path
       id="cfQdiWIcQ"
       d="m 216.83,327.09 -32.29,-65.16 c 13.24,-1 16.07,-3.4 8.51,-7.18 -7.57,-3.78 -15.13,0.24 -22.7,12.06"
       inkscape:connector-curvature="0" />
    <path
       id="e1MNgeTzBa"
       d="m 230.66,327.09 c 0,7.64 -6.2,13.83 -13.83,13.83 -7.64,0 -13.83,-6.19 -13.83,-13.83 0,-7.63 6.19,-13.83 13.83,-13.83 7.63,0 13.83,6.2 13.83,13.83 z"
       inkscape:connector-curvature="0" />
    <path
       id="i1eMw3AfiN"
       d="m 216.83,327.09 c 16.77,-11.82 31,-21.98 42.68,-30.49 11.69,-8.51 19.17,-16.32 22.45,-23.41"
       inkscape:connector-curvature="0" />
    <path
       id="bq8521rwB"
       d="m 163.13,330.64 c -0.13,-4.97 2.97,-29.79 17.15,-40.41 9.46,-7.07 40.44,-17.72 92.94,-31.93"
       inkscape:connector-curvature="0" />
  </defs>
  <sodipodi:namedview
     id="base"
     pagecolor="#ffffff"
     bordercolor="#666666"
     borderopacity="1.0"
     inkscape:pageopacity="0.0"
     inkscape:pageshadow="2"
     inkscape:zoom="0.98994949"
     inkscape:cx="284.93546"
     inkscape:cy="38.94428"
     inkscape:document-units="mm"
     inkscape:current-layer="layer1"
     showgrid="false"
     inkscape:window-width="1920"
     inkscape:window-height="1055"
     inkscape:window-x="0"
     inkscape:window-y="25"
     inkscape:window-maximized="1"
     fit-margin-top="0"
     fit-margin-left="0"
     fit-margin-right="0"
     fit-margin-bottom="0" />
  <metadata
     id="metadata5">
    <rdf:RDF>
      <cc:Work
         rdf:about="">
        <dc:format>image/svg+xml</dc:format>
        <dc:type
           rdf:resource="http://purl.org/dc/dcmitype/StillImage" />
        <dc:title></dc:title>
      </cc:Work>
    </rdf:RDF>
  </metadata>
  <g
     inkscape:label="レイヤー 1"
     inkscape:groupmode="layer"
     id="layer1"
     transform="translate(-77.36591,-65.885248)">
    <g
       id="g61"
       transform="matrix(0.4202809,0,0,0.4202809,23.036198,-30.633185)">
      <g
         id="g23">
        <g
           id="g21">
          <use
             id="use19"
             xlink:href="#a1awsRHjJK"
             style="opacity:1;fill-opacity:0;stroke:#1b9784;stroke-width:1;stroke-opacity:1"
             x="0"
             y="0"
             width="100%"
             height="100%" />
        </g>
      </g>
      <g
         id="g29">
        <g
           id="g27">
          <use
             id="use25"
             xlink:href="#a7KOLuLiu"
             style="opacity:1;fill-opacity:0;stroke:#1b9784;stroke-width:1;stroke-opacity:1"
             x="0"
             y="0"
             width="100%"
             height="100%" />
        </g>
      </g>
      <g
         id="g35">
        <g
           id="g33">
          <use
             id="use31"
             xlink:href="#f2CTrcp1fL"
             style="opacity:1;fill-opacity:0;stroke:#1b9784;stroke-width:1;stroke-opacity:1"
             x="0"
             y="0"
             width="100%"
             height="100%" />
        </g>
      </g>
      <g
         id="g41">
        <g
           id="g39">
          <use
             id="use37"
             xlink:href="#cfQdiWIcQ"
             style="opacity:1;fill-opacity:0;stroke:#1b9784;stroke-width:1;stroke-opacity:1"
             x="0"
             y="0"
             width="100%"
             height="100%" />
        </g>
      </g>
      <g
         id="g47">
        <g
           id="g45">
          <use
             id="use43"
             xlink:href="#e1MNgeTzBa"
             style="opacity:1;fill-opacity:0;stroke:#1b9784;stroke-width:1;stroke-opacity:1"
             x="0"
             y="0"
             width="100%"
             height="100%" />
        </g>
      </g>
      <g
         id="g53">
        <g
           id="g51">
          <use
             id="use49"
             xlink:href="#i1eMw3AfiN"
             style="opacity:1;fill-opacity:0;stroke:#1b9784;stroke-width:1;stroke-opacity:1"
             x="0"
             y="0"
             width="100%"
             height="100%" />
        </g>
      </g>
      <g
         id="g59">
        <g
           id="g57">
          <use
             id="use55"
             xlink:href="#bq8521rwB"
             style="opacity:1;fill-opacity:0;stroke:#1b9784;stroke-width:1;stroke-opacity:1"
             x="0"
             y="0"
             width="100%"
             height="100%" />
        </g>
      </g>
    </g>
  </g>
</svg>
