<?xml version="1.0" encoding="UTF-8" standalone="no"?>
<svg
     xmlns:svg="http://www.w3.org/2000/svg"
   xmlns="http://www.w3.org/2000/svg"
   version="1.1"
   id="_x31_"
   x="0px"
   y="0px"
   viewBox="0 0 552.49378 326.2601"
   xml:space="preserve"
   width="552.49377"
   height="326.2601">
<g
   id="g174"
   transform="translate(17.899816,-47.81828)">
	<rect
   style="fill:#005992;fill-opacity:1;stroke:#ffffff;stroke-width:1.60000002;stroke-miterlimit:4;stroke-dasharray:none;stroke-opacity:1"
   id="rect4990"
   width="670.38519"
   height="351.30023"
   x="-79.254204"
   y="7.1988568" /><rect
   style="fill:#005992;fill-opacity:1;stroke:#ffffff;stroke-width:0.5414499;stroke-miterlimit:4;stroke-dasharray:none;stroke-opacity:1"
   id="rect4732"
   width="551.95233"
   height="325.71866"
   x="-17.629091"
   y="48.089005" /><g
   id="g12">
		<polygon
   style="fill:#ccdeee"
   points="111.729,329.018 123.621,329.018 123.621,271.268 105.781,271.268 105.781,293.827 100.429,293.827 100.429,286.138 84.966,286.138 84.966,329.554 96.267,329.554 96.267,330.15 111.729,330.15 "
   id="polygon2" />
		<polygon
   style="fill:#ccdeee"
   points="430.996,243.933 394.25,243.933 394.25,236.176 365.105,229.039 365.105,332.531 394.25,332.531 394.25,330.386 430.996,330.386 "
   id="polygon4" />
		<polygon
   style="fill:#ccdeee"
   points="287.19,330.979 315.62,330.979 315.62,330.386 325.561,330.386 333.068,330.386 364.987,330.386 364.987,190.415 357.4,190.415 357.4,179.469 337.324,179.469 337.324,190.415 325.561,190.415 325.561,251.045 315.62,251.045 315.62,224.28 287.19,224.28 "
   id="polygon6" />
		<polygon
   style="fill:#ccdeee"
   points="233.376,210.699 225.792,210.699 225.792,219.558 222.069,219.558 222.069,330.386 256.142,330.386 256.142,219.558 233.376,219.558 "
   id="polygon8" />
		<polygon
   style="fill:#ccdeee"
   points="179.535,254.614 168.829,254.614 168.829,330.386 179.535,330.386 179.535,330.743 202.136,330.743 202.136,233.796 179.535,233.796 "
   id="polygon10" />
	</g>
	<polygon
   style="fill:#3bb0c4"
   points="62.732,327.585 74.777,327.585 86.823,327.585 86.823,283.234 74.777,275.569 62.732,283.234 "
   id="polygon14" />
	<g
   id="g40">
		<g
   id="g18">
			<polygon
   style="fill:#3bb0c4"
   points="291.076,204.123 248.544,225.737 248.544,330.386 291.076,330.386 "
   id="polygon16" />
		</g>
		<path
   style="fill:#3bb0c4"
   d="m 341.058,308.25 v -62.581 h -46.435 v 6.964 h 4.643 v 13.157 h -4.643 v 0.385 6.579 0.386 h 4.643 v 13.157 h -4.643 v 6.966 h 4.643 v 13.159 h -4.643 v 6.964 h 4.643 v 16.999 h 21.673 20.118 9.279 V 308.25 Z m -25.03,14.889 h -5.98 v -5.8 h 5.98 z m 0,-20.297 h -5.98 v -5.798 h 5.98 z m 0,-20.298 h -5.98 v -5.795 h 5.98 z m 0,-20.294 h -5.98 v -5.798 h 5.98 z m 11.414,60.889 h -5.98 v -5.8 h 5.98 z m 0,-20.297 h -5.98 v -5.798 h 5.98 z m 0,-20.298 h -5.98 v -5.795 h 5.98 z m 0,-20.294 h -5.98 v -5.798 h 5.98 z"
   id="path20" />
		<g
   id="g24">
			<path
   style="fill:#3bb0c4"
   d="m 234.676,248.726 v -6.279 h -13.282 v -17.949 h -18.752 v 17.949 h -13.284 v 6.279 h 4.725 v 5.385 h -4.725 v 6.283 h 4.725 v 5.384 h -4.725 v 6.283 h 4.725 v 5.38 h -4.725 v 6.283 h 4.725 v 5.385 h -4.725 v 6.283 h 4.725 v 5.382 h -4.725 v 6.283 h 4.725 v 5.384 h -4.725 v 6.281 h 4.725 v 5.383 h -4.725 v 6.283 h 45.318 v -6.283 h -4.724 v -5.383 h 4.724 v -6.281 h -4.724 v -5.384 h 4.724 v -6.283 h -4.724 v -5.382 h 4.724 v -6.283 h -4.724 v -5.385 h 4.724 v -6.283 h -4.724 v -5.38 h 4.724 v -6.283 h -4.724 v -5.384 h 4.724 v -6.283 h -4.724 v -5.385 z m -32.034,75.377 h -5.902 v -5.383 h 5.902 z m 0,-11.665 h -5.902 v -5.384 h 5.902 z m 0,-11.666 h -5.902 v -5.382 h 5.902 z m 0,-11.664 h -5.902 v -5.385 h 5.902 z m 0,-11.668 h -5.902 v -5.38 h 5.902 z m 0,-11.663 h -5.902 v -5.384 h 5.902 z m 0,-11.666 h -5.902 v -5.385 h 5.902 z m 24.652,69.992 h -5.9 v -5.383 h 5.9 z m 0,-11.665 h -5.9 v -5.384 h 5.9 z m 0,-11.666 h -5.9 v -5.382 h 5.9 z m 0,-11.664 h -5.9 v -5.385 h 5.9 z m 0,-11.668 h -5.9 v -5.38 h 5.9 z m 0,-11.663 h -5.9 v -5.384 h 5.9 z m 0,-11.666 h -5.9 v -5.385 h 5.9 z"
   id="path22" />
		</g>
		<path
   style="fill:#3bb0c4"
   d="m 106.229,275.995 c 0,-2.201 0,-4.767 0,-7.388 h 11.201 l -11.201,-9.49 c 0,-1.411 0,-2.693 0,-3.775 0,-1.067 0,-1.938 0,-2.544 0,-0.275 0,-0.493 0,-0.651 l 5.127,-7.069 H 88.212 l 5.129,7.069 c 0,0.857 0,3.534 0,6.97 l -11.2,9.49 h 11.2 c 0,2.621 0,5.188 0,7.388 l -11.2,9.49 h 11.006 c -0.116,1.861 -0.288,4.019 -0.516,6.408 -0.913,9.466 -2.753,22.536 -5.811,35.025 h -1.811 v 3.468 h 4.343 v -3.228 l 10.277,-7.836 h 0.242 l 10.252,7.771 v 3.292 h 4.344 v -3.468 h -1.716 c -2.31,-9.435 -3.928,-19.201 -4.97,-27.496 -0.543,-4.296 -0.93,-8.197 -1.183,-11.45 -0.07,-0.879 -0.127,-1.707 -0.174,-2.486 h 11.006 z m 6.689,-9.072 h -6.69 c 0,-1.141 0,-2.279 0,-3.391 0,-0.776 0,-1.538 0,-2.278 z m -4.762,-20.162 -3.087,4.252 h -0.922 l -3.584,-2.299 3.047,-1.952 h 4.546 z m -8.66,57.028 -6.042,-5.107 c 0.026,-0.219 0.052,-0.438 0.079,-0.657 l 6.192,-6.449 6.329,6.594 c 0.018,0.14 0.034,0.281 0.051,0.419 l -6.153,5.2 z m 3.67,-51.094 -3.442,2.437 -3.443,-2.437 z m -6.196,-1.682 2.759,-1.766 2.756,1.766 z m 6.486,9.433 -3.732,2.64 -3.733,-2.64 z m -7.319,-1.681 3.587,-2.535 3.585,2.535 z m 8.534,1.921 c 0,1.857 0,3.871 0,5.899 l -4.172,-2.95 z m -1.073,6.237 H 95.85 l 3.874,-2.739 z m 0.219,1.684 -4.093,2.895 -4.096,-2.895 z m 0.854,0.493 c 0,2.065 0,4.083 0,5.9 l -4.172,-2.949 z m -0.643,6.542 h -8.61 l 4.305,-3.041 z m -0.425,1.684 -3.879,2.742 -3.88,-2.742 z m -0.152,6.477 h -7.455 l 3.727,-2.635 z m 0.896,1.682 -4.623,4.816 -4.623,-4.816 z m 1.043,6.581 c 0.142,1.471 0.305,3.026 0.492,4.651 l -5.001,-5.209 h 4.457 c 0.018,0.184 0.033,0.369 0.052,0.558 z m -4.662,-1.536 4.178,-4.352 c 0.088,1.326 0.2,2.782 0.341,4.352 z m -0.228,-9.912 4.172,-2.95 c 0,1.058 0,1.986 0,2.745 0,0.87 0.028,1.952 0.088,3.218 z m 4.171,-21.989 -4.172,-2.95 4.172,-2.95 c 0,1.13 0,3.268 0,5.9 z m -5.723,-2.95 -4.049,2.864 c 0,-1.184 0,-2.27 0,-3.201 0,-1.056 0,-1.922 0,-2.524 z m 0,7.956 -4.049,2.865 c 0,-0.999 0,-1.996 0,-2.969 0,-0.944 0,-1.871 0,-2.762 z m 0,8.417 -4.049,2.862 c 0,-1.77 0,-3.726 0,-5.727 z m 0,8.566 -4.134,2.926 c 0.059,-1.231 0.085,-2.279 0.085,-3.131 0,-0.736 0,-1.638 0,-2.659 z m -0.228,9.912 h -4.4 c 0.076,-0.839 0.143,-1.647 0.204,-2.418 0.049,-0.629 0.092,-1.234 0.133,-1.813 z m -4.487,0.977 h 4.333 l -4.862,5.064 c 0.203,-1.781 0.379,-3.474 0.529,-5.064 z m 7.712,-44.746 -2.216,1.416 -2.207,-1.416 z m -10.533,0 h 4.446 l 3.039,1.952 -3.595,2.299 h -0.804 z m -4.762,20.162 6.691,-5.669 c 0,1.803 0,3.732 0,5.669 z m 0,16.88 6.691,-5.669 c 0,0.867 0,1.635 0,2.279 0,0.845 -0.029,1.921 -0.091,3.195 0,0.065 -0.006,0.13 -0.009,0.194 H 86.65 Z m 6.673,15.933 4.795,4.053 H 92.78 c 0.196,-1.385 0.376,-2.736 0.543,-4.053 z m -0.683,5.027 h 6.155 l -7.089,5.986 c 0.341,-2.036 0.651,-4.037 0.934,-5.986 z m 7.084,0.38 8.078,6.826 -8.054,6.141 -8.102,-6.141 z m -1.141,13.203 h -8.267 c 0.366,-1.843 0.709,-3.676 1.029,-5.487 z m -10.101,8.349 c 0.592,-2.452 1.135,-4.919 1.635,-7.373 h 8.039 z m 12.867,-7.373 h 8.102 c 0.5,2.457 1.046,4.927 1.635,7.382 z m 7.905,-0.976 h -8.344 l 7.302,-5.565 c 0.321,1.835 0.671,3.696 1.042,5.565 z m -1.372,-7.476 -7.229,-6.107 h 6.221 v -0.379 c 0.302,2.106 0.638,4.275 1.008,6.486 z m -1.092,-7.081 h -5.459 l 4.904,-4.145 c 0.169,1.344 0.355,2.729 0.555,4.145 z m -0.463,-19.986 c -0.003,-0.065 -0.006,-0.129 -0.009,-0.194 -0.062,-1.274 -0.089,-2.35 -0.089,-3.195 0,-0.645 0,-1.413 0,-2.279 l 6.69,5.669 h -6.592 z"
   id="path26" />
		<g
   id="g30">
			<polygon
   style="fill:#3bb0c4"
   points="124.288,210.546 124.288,214.469 124.288,222.712 124.288,233.954 116.803,250.839 116.803,330.386 157.1,330.386 157.1,250.839 149.616,233.954 149.616,222.712 149.616,214.469 149.616,210.546 143.859,210.546 143.859,214.469 130.045,214.469 130.045,210.546 "
   id="polygon28" />
		</g>
		<g
   id="g34">
			<polygon
   style="fill:#3bb0c4"
   points="433.571,232.637 433.571,250.826 452.826,262.258 452.826,330.386 429.127,330.386 429.127,261.516 429.127,248.189 429.127,232.637 "
   id="polygon32" />
		</g>
		<g
   id="g38">
			<path
   style="fill:#3bb0c4"
   d="m 388.347,231.172 v -7.919 l -18.945,-5.32 -12.961,4.503 v 6.933 l -8.358,2.902 v 98.114 h 48.621 v -96.866 z m -15.727,92.495 h -3.496 v -7.41 l 3.496,0.091 z m 0,-16.264 -3.496,-0.206 v -7.411 l 3.496,0.296 z m 0,-16.266 -3.496,-0.41 v -7.411 l 3.496,0.503 z m 0,-16.266 -3.496,-0.617 v -7.411 l 3.496,0.708 z m 0,-16.266 -3.496,-0.82 v -7.411 l 3.496,0.913 z m 0,-16.267 -3.496,-1.025 V 233.9 l 3.496,1.12 z m 9.81,81.329 h -3.252 v -7.145 l 3.252,0.085 z m 0,-15.688 -3.252,-0.193 v -7.146 l 3.252,0.278 z m 0,-15.691 -3.252,-0.379 v -7.149 l 3.252,0.469 z m 0,-15.69 -3.252,-0.574 v -7.145 l 3.252,0.659 z m 0,-15.691 -3.252,-0.762 v -7.148 l 3.252,0.851 z m 0,-15.688 -3.252,-0.956 v -7.146 l 3.252,1.042 z m 9.138,78.448 h -3.03 v -6.896 l 3.03,0.079 z m 0,-15.153 -3.03,-0.177 v -6.9 l 3.03,0.258 z m 0,-15.153 -3.03,-0.358 v -6.896 l 3.03,0.435 z m 0,-15.154 -3.03,-0.532 v -6.9 l 3.03,0.614 z m 0,-15.155 -3.03,-0.709 v -6.9 l 3.03,0.791 z m 0,-15.151 -3.03,-0.89 v -6.899 l 3.03,0.97 z"
   id="path36" />
		</g>
	</g>
	<g
   id="g44">
		<polygon
   style="fill:#377590"
   points="112.218,330.386 112.218,304.649 98.045,299.804 98.045,304.014 85.737,299.804 85.737,304.014 73.429,299.804 73.429,330.386 "
   id="polygon42" />
	</g>
	<g
   id="g72">
		<polygon
   style="fill:#377590"
   points="238.607,292.294 238.607,269.436 209.085,269.436 209.085,292.294 185.754,292.294 185.754,330.386 261.939,330.386 261.939,292.294 "
   id="polygon46" />
		<path
   style="fill:#ffffff"
   d="m 223.846,289.025 c -3.334,0 -6.037,-2.705 -6.037,-6.036 0,-3.337 2.703,-6.042 6.037,-6.042 3.334,0 6.039,2.705 6.039,6.042 0,3.331 -2.705,6.036 -6.039,6.036 z"
   id="path48" />
		<polygon
   style="fill:#377590"
   points="223.602,279.991 223.602,282.993 220.6,282.993 220.6,284.495 223.602,284.495 225.103,284.495 225.103,282.993 225.103,279.991 "
   id="polygon50" />
		<rect
   x="195.30299"
   y="314.36801"
   style="fill:#ffffff"
   width="4.079"
   height="6.2189999"
   id="rect52" />
		<rect
   x="195.30299"
   y="302.19601"
   style="fill:#ffffff"
   width="4.079"
   height="6.2210002"
   id="rect54" />
		<rect
   x="208.556"
   y="314.36801"
   style="fill:#ffffff"
   width="4.0770001"
   height="6.2189999"
   id="rect56" />
		<rect
   x="208.556"
   y="302.19601"
   style="fill:#ffffff"
   width="4.0770001"
   height="6.2210002"
   id="rect58" />
		<rect
   x="221.80701"
   y="314.36801"
   style="fill:#ffffff"
   width="4.079"
   height="6.2189999"
   id="rect60" />
		<rect
   x="221.80701"
   y="302.19601"
   style="fill:#ffffff"
   width="4.079"
   height="6.2210002"
   id="rect62" />
		<rect
   x="235.06"
   y="314.36801"
   style="fill:#ffffff"
   width="4.0770001"
   height="6.2189999"
   id="rect64" />
		<rect
   x="235.06"
   y="302.19601"
   style="fill:#ffffff"
   width="4.0770001"
   height="6.2210002"
   id="rect66" />
		<rect
   x="248.312"
   y="314.36801"
   style="fill:#ffffff"
   width="4.079"
   height="6.2189999"
   id="rect68" />
		<rect
   x="248.312"
   y="302.19601"
   style="fill:#ffffff"
   width="4.079"
   height="6.2210002"
   id="rect70" />
	</g>
	<path
   style="fill:#377590"
   d="m 456.814,310.472 v -8.038 l 1.78,1.685 V 300.74 L 446.297,289.108 434,300.741 v 3.379 l 1.78,-1.685 v 8.038 l -10.582,10.011 v 3.377 l 1.778,-1.684 v 8.209 h 8.804 8.804 3.428 8.802 8.802 v -8.209 l 1.781,1.684 v -3.377 z"
   id="path74" />
	<g
   id="g78">
		<path
   style="fill:#377590"
   d="m 178.969,272.755 v -6.964 h -15.084 l -1.227,-5.97 c 1.119,-0.846 1.844,-2.187 1.844,-3.698 0,-2.564 -2.079,-4.643 -4.643,-4.643 -2.565,0 -4.643,2.079 -4.643,4.643 0,1.511 0.725,2.85 1.843,3.698 l -1.228,5.97 h -27.94 v 6.964 h 4.645 v 13.543 h -4.645 v 6.966 h 4.645 v 13.159 h -4.645 v 6.964 h 4.645 v 16.999 h 41.79 v -16.999 h 4.643 v -6.964 h -4.643 v -13.159 h 4.643 v -6.966 h -4.643 v -13.543 z m -16.236,-6.964 h -2.312 v -5.063 c 0.423,-0.051 0.828,-0.156 1.208,-0.313 z m -4.646,-5.376 c 0.379,0.157 0.787,0.262 1.209,0.313 v 5.063 h -2.313 z"
   id="path76" />
	</g>
	<g
   id="g82">
		<path
   style="fill:#377590"
   d="m 316.132,307.4 v -10.446 l -21.115,-14.629 -21.113,14.629 V 307.4 l -6.4,3.482 v 19.503 h 27.513 27.513 v -19.503 z"
   id="path80" />
	</g>
	<g
   id="g86">
		<path
   style="fill:#377590"
   d="m 28.804,319.049 v 11.054 h 33.954 v -27.24 l -26.057,8.29 v 5.923 z"
   id="path84" />
	</g>
	<g
   id="g90">
		<path
   style="fill:#377590"
   d="m 378.832,281.63 v 5.417 h 2.322 v 43.338 h 36.372 v -43.338 h 2.322 v -5.417 z"
   id="path88" />
	</g>
	<rect
   y="327.32901"
   style="fill:#377590;stroke-width:3.65057158"
   width="647.5932"
   height="51.006382"
   id="rect92"
   x="-70.508476" />
	<g
   id="g96">
		<path
   style="fill:#377590"
   d="m 360.93,311.727 v -3.066 c 0,0 4.344,-2.555 6.133,-5.111 -4.09,1.021 -7.669,-3.069 -7.669,-3.069 l -1.533,-5.366 0.258,-2.555 h -2.046 c 0,2.299 -1.534,3.066 -1.534,3.066 h -3.832 -3.323 -3.834 c 0,0 -1.533,-0.766 -1.533,-3.066 h -2.045 l 0.256,2.555 -1.534,5.366 c 0,0 -3.578,4.09 -7.667,3.069 1.787,2.555 6.133,5.111 6.133,5.111 v 3.066 c 0,0 -5.367,5.367 -13.546,5.367 4.858,4.346 8.179,4.859 9.456,5.37 v 7.922 h 14.314 3.323 14.312 v -7.922 c 1.278,-0.511 4.6,-1.024 9.456,-5.37 -8.179,0 -13.545,-5.367 -13.545,-5.367 z"
   id="path94" />
	</g>
	<path
   style="fill:#377590"
   d="m 184.075,319.833 c 0,-2.436 -1.977,-4.413 -4.41,-4.413 -2.437,0 -4.411,1.977 -4.411,4.413 0,2.193 1.604,4.014 3.704,4.352 v 3.94 h 1.413 v -3.94 c 2.1,-0.338 3.704,-2.159 3.704,-4.352 z"
   id="path98" />
	<g
   id="g104">
		<path
   style="fill:#377590"
   d="m 122.726,318.376 c 0,-2.862 -2.319,-5.183 -5.183,-5.183 -2.862,0 -5.185,2.321 -5.185,5.183 0,2.58 1.886,4.72 4.356,5.118 v 4.631 h 1.659 v -4.631 c 2.469,-0.398 4.353,-2.538 4.353,-5.118 z"
   id="path100" />
		<path
   style="fill:#377590"
   d="m 128.081,321.782 c 0,-2.122 -1.723,-3.843 -3.846,-3.843 -2.125,0 -3.846,1.721 -3.846,3.843 0,1.917 1.399,3.504 3.232,3.8 v 3.436 h 1.23 v -3.436 c 1.831,-0.296 3.23,-1.883 3.23,-3.8 z"
   id="path102" />
	</g>
	<g
   id="g110">
		<path
   style="fill:#377590"
   d="m 484.106,314.176 c 0,-3.994 -3.238,-7.229 -7.231,-7.229 -3.996,0 -7.233,3.235 -7.233,7.229 0,3.599 2.632,6.582 6.076,7.137 v 6.458 h 2.315 v -6.458 c 3.442,-0.555 6.073,-3.537 6.073,-7.137 z"
   id="path106" />
		<path
   style="fill:#377590"
   d="m 491.572,318.929 c 0,-2.962 -2.402,-5.363 -5.365,-5.363 -2.964,0 -5.365,2.401 -5.365,5.363 0,2.671 1.952,4.884 4.506,5.296 v 4.793 h 1.72 v -4.793 c 2.553,-0.412 4.504,-2.625 4.504,-5.296 z"
   id="path108" />
	</g>
	<g
   id="g116">
		<path
   style="fill:#377590"
   d="m 378.767,318.376 c 0,-2.862 -2.321,-5.183 -5.185,-5.183 -2.864,0 -5.185,2.321 -5.185,5.183 0,2.58 1.888,4.72 4.355,5.118 v 4.631 h 1.661 v -4.631 c 2.47,-0.398 4.354,-2.538 4.354,-5.118 z"
   id="path112" />
		<path
   style="fill:#377590"
   d="m 384.12,321.782 c 0,-2.122 -1.723,-3.843 -3.846,-3.843 -2.125,0 -3.848,1.721 -3.848,3.843 0,1.917 1.4,3.504 3.232,3.8 v 3.436 h 1.231 v -3.436 c 1.834,-0.296 3.231,-1.883 3.231,-3.8 z"
   id="path114" />
	</g>
	<g
   id="g130">
		<rect
   x="143.987"
   y="317.173"
   style="fill:#ffffff"
   width="4.9089999"
   height="4.9089999"
   id="rect118" />
		<rect
   x="143.987"
   y="297.24701"
   style="fill:#ffffff"
   width="4.9089999"
   height="4.9070001"
   id="rect120" />
		<rect
   x="143.987"
   y="277.323"
   style="fill:#ffffff"
   width="4.9089999"
   height="4.9070001"
   id="rect122" />
		<rect
   x="157.965"
   y="317.173"
   style="fill:#ffffff"
   width="4.9070001"
   height="4.9089999"
   id="rect124" />
		<rect
   x="157.965"
   y="297.24701"
   style="fill:#ffffff"
   width="4.9070001"
   height="4.9070001"
   id="rect126" />
		<rect
   x="157.965"
   y="277.323"
   style="fill:#ffffff"
   width="4.9070001"
   height="4.9070001"
   id="rect128" />
	</g>
	<g
   id="g142">
		<rect
   x="280.85501"
   y="316.366"
   style="fill:#ffffff"
   width="4.2350001"
   height="5.6469998"
   id="rect132" />
		<rect
   x="286.72699"
   y="299.31299"
   style="fill:#ffffff"
   width="4.2350001"
   height="5.6469998"
   id="rect134" />
		<rect
   x="292.89899"
   y="316.366"
   style="fill:#ffffff"
   width="4.2360001"
   height="5.6469998"
   id="rect136" />
		<rect
   x="299.07401"
   y="299.31299"
   style="fill:#ffffff"
   width="4.2360001"
   height="5.6469998"
   id="rect138" />
		<rect
   x="304.94601"
   y="316.366"
   style="fill:#ffffff"
   width="4.2350001"
   height="5.6469998"
   id="rect140" />
	</g>
	<g
   id="g152">
		<rect
   x="392.375"
   y="295.561"
   style="fill:#ffffff"
   width="4.5739999"
   height="5.3280001"
   id="rect144" />
		<rect
   x="401.89301"
   y="295.561"
   style="fill:#ffffff"
   width="4.5739999"
   height="5.3280001"
   id="rect146" />
		<rect
   x="392.375"
   y="307.16"
   style="fill:#ffffff"
   width="4.5739999"
   height="5.3280001"
   id="rect148" />
		<rect
   x="401.89301"
   y="307.16"
   style="fill:#ffffff"
   width="4.5739999"
   height="5.3280001"
   id="rect150" />
	</g>
	<g
   id="g160">
		<rect
   x="438.93799"
   y="321.20499"
   style="fill:#ffffff"
   width="4.013"
   height="4.6560001"
   id="rect154" />
		<rect
   x="444.29001"
   y="302.07199"
   style="fill:#ffffff"
   width="4.013"
   height="4.6539998"
   id="rect156" />
		<rect
   x="449.64099"
   y="321.20499"
   style="fill:#ffffff"
   width="4.0159998"
   height="4.6560001"
   id="rect158" />
	</g>
	<g
   id="g172">
		<rect
   x="53.604"
   y="323.37701"
   style="fill:#ffffff"
   width="1.969"
   height="2.51"
   id="rect162" />
		<rect
   x="53.604"
   y="313.58401"
   style="fill:#ffffff"
   width="1.969"
   height="2.507"
   id="rect164" />
		<rect
   x="43.810001"
   y="313.58401"
   style="fill:#ffffff"
   width="1.969"
   height="2.507"
   id="rect166" />
		<rect
   x="43.570999"
   y="323.37701"
   style="fill:#ffffff"
   width="1.971"
   height="2.51"
   id="rect168" />
		<rect
   x="33.535999"
   y="323.37701"
   style="fill:#ffffff"
   width="1.971"
   height="2.51"
   id="rect170" />
	</g>
<g
   transform="matrix(1.0579824,0,0,1.0579824,74.431429,305.89319)"
   id="innerbike"
   style="stroke:#ffffff;stroke-width:1.76473439;stroke-miterlimit:4;stroke-dasharray:none;stroke-opacity:1"><path
     id="path30317"
     d="m 3.9422256,279.2934 c 6.7318514,0 6.7318514,0 6.7318514,0"
     style="fill:none;stroke:#ffffff;stroke-width:1.76473439;stroke-linecap:butt;stroke-linejoin:miter;stroke-miterlimit:4;stroke-dasharray:none;stroke-opacity:1"
     transform="translate(0,-270.54167)" /><path
     id="path30319"
     d="m 12.344511,273.94801 h 7.099347"
     style="fill:none;stroke:#ffffff;stroke-width:1.76473439;stroke-linecap:butt;stroke-linejoin:miter;stroke-miterlimit:4;stroke-dasharray:none;stroke-opacity:1"
     transform="translate(0,-270.54167)" /><path
     id="path30323"
     d="M 7.5169553,8.8853617 V 15.968004"
     style="fill:none;stroke:#ffffff;stroke-width:1.76473439;stroke-linecap:butt;stroke-linejoin:miter;stroke-miterlimit:4;stroke-dasharray:none;stroke-opacity:1" /><path
     id="path30325"
     d="M 7.6505902,11.99237 H 17.639789"
     style="fill:none;stroke:#ffffff;stroke-width:1.76473439;stroke-linecap:butt;stroke-linejoin:miter;stroke-miterlimit:4;stroke-dasharray:none;stroke-opacity:1" /><path
     id="path30329"
     d="m 16.203215,12.059187 -6.180608,5.178347"
     style="fill:none;stroke:#ffffff;stroke-width:1.76473439;stroke-linecap:butt;stroke-linejoin:miter;stroke-miterlimit:4;stroke-dasharray:none;stroke-opacity:1" /><circle
     r="3.5747297"
     cy="19.571072"
     cx="7.550364"
     id="path30331"
     style="opacity:1;fill:none;fill-opacity:1;stroke:#ffffff;stroke-width:1.76473439;stroke-miterlimit:4;stroke-dasharray:none;stroke-opacity:1" /><circle
     r="3.5747299"
     cy="19.571072"
     cx="19.324032"
     id="path30331-3"
     style="opacity:1;fill:none;fill-opacity:1;stroke:#ffffff;stroke-width:1.76473439;stroke-miterlimit:4;stroke-dasharray:none;stroke-opacity:1" /><path
     id="path30348"
     d="M 15.935946,3.5065626 18.608641,16.06823 h 0.03341 v 0.03341"
     style="fill:none;stroke:#ffffff;stroke-width:1.76473439;stroke-linecap:butt;stroke-linejoin:miter;stroke-miterlimit:4;stroke-dasharray:none;stroke-opacity:1" /></g><g
   id="innerairplane"
   transform="matrix(0.06743877,0,0,0.06743877,58.448284,121.68192)">
	<g
   id="g4783">
		<path
   id="path4773"
   d="m 111.523,327.473 11.231,56.146 c 0.839,4.199 4.525,7.219 8.806,7.219 h 113.917 c 1.821,0 3.519,-0.918 4.514,-2.444 l 36.425,-55.852 z"
   style="fill:#7fabd4" />
		<polygon
   id="polygon4775"
   points="418.217,349.199 466.376,352.819 466.376,302.126 367.525,310.576 "
   style="fill:#7fabd4" />
		<path
   id="path4777"
   d="M 143.208,170.325 C 72.688,175.274 0,210.043 0,259.038 0,308.033 72.746,342.048 143.208,347.751 362.455,365.493 496.791,319.87 512,259.038 496.791,198.206 359.921,155.116 143.208,170.325 Z"
   style="fill:#99c9f2" />
		<path
   id="path4779"
   d="m 0,259.038 c 0,48.994 72.746,83.01 143.208,88.713 C 362.455,365.493 496.791,319.87 512,259.038 Z"
   style="fill:#89b9e2" />
		<path
   id="path4781"
   d="m 367.525,208.344 48.523,-77.636 c 1.378,-2.206 3.645,-3.705 6.215,-4.11 l 33.731,-5.327 c 2.596,-0.41 5.239,0.336 7.235,2.044 1.998,1.705 3.148,4.201 3.148,6.827 v 95.945 z"
   style="fill:#99c9f2" />
	</g>
	<path
   id="path4785"
   d="m 158.331,373.633 c 0,2.044 -1.657,3.703 -3.702,3.703 h -10.227 c -2.045,0 -3.704,-1.659 -3.704,-3.703 v -12.187 c 0,-2.044 1.659,-3.702 3.704,-3.702 h 10.227 c 2.045,0 3.702,1.658 3.702,3.702 z"
   style="fill:#595f75" />
	<path
   id="path4787"
   d="m 185.759,373.633 c 0,2.044 -1.658,3.703 -3.702,3.703 H 171.83 c -2.046,0 -3.702,-1.659 -3.702,-3.703 v -12.187 c 0,-2.044 1.657,-3.702 3.702,-3.702 h 10.227 c 2.044,0 3.702,1.658 3.702,3.702 z"
   style="fill:#595f75" />
	<path
   id="path4789"
   d="m 213.186,373.633 c 0,2.044 -1.657,3.703 -3.702,3.703 h -10.227 c -2.046,0 -3.703,-1.659 -3.703,-3.703 v -12.187 c 0,-2.044 1.657,-3.702 3.703,-3.702 h 10.227 c 2.045,0 3.702,1.658 3.702,3.702 z"
   style="fill:#595f75" />
</g><g
   id="cloud1"
   transform="matrix(0.19475052,0,0,0.19475052,334.38838,80.091666)">
	<path
   id="path4810"
   d="M 512,319.516 C 494.546,246.651 428.991,192.484 350.779,192.484 c -43.359,0 -82.823,16.654 -112.367,43.902 -11.848,-3.35 -24.351,-5.146 -37.273,-5.146 -45.03,0 -84.972,21.774 -109.884,55.365 -9.237,-5.093 -19.85,-7.996 -31.141,-7.996 C 32.8,278.608 9.447,295.561 0,319.516 Z"
   style="fill:#ffffff" />
</g><g
   id="cloud2"
   transform="matrix(0.14644577,0,0,0.14644577,128.70107,64.319196)"><path
     id="path4810-2"
     d="M 512,319.516 C 494.546,246.651 428.991,192.484 350.779,192.484 c -43.359,0 -82.823,16.654 -112.367,43.902 -11.848,-3.35 -24.351,-5.146 -37.273,-5.146 -45.03,0 -84.972,21.774 -109.884,55.365 -9.237,-5.093 -19.85,-7.996 -31.141,-7.996 C 32.8,278.608 9.447,295.561 0,319.516 Z"
     style="fill:#ffffff" /></g><g
   style="fill:#fefefe;fill-opacity:1;opacity:0.468"
   transform="translate(0,-10)"
   id="g1134"><rect
     style="opacity:1;fill:#fefefe;fill-opacity:1;stroke:none;stroke-width:1.03923988;stroke-miterlimit:4;stroke-dasharray:none;stroke-opacity:1"
     id="rect1078"
     width="38.870007"
     height="2.8044231"
     x="3.9453888"
     y="352.10428" /><rect
     style="opacity:1;fill:#fefefe;fill-opacity:1;stroke:none;stroke-width:1.03923988;stroke-miterlimit:4;stroke-dasharray:none;stroke-opacity:1"
     id="rect1078-3"
     width="38.870007"
     height="2.8044231"
     x="99.000229"
     y="352.10428" /><rect
     style="opacity:1;fill:#fefefe;fill-opacity:1;stroke:none;stroke-width:1.03923988;stroke-miterlimit:4;stroke-dasharray:none;stroke-opacity:1"
     id="rect1078-6"
     width="38.870007"
     height="2.8044231"
     x="194.0551"
     y="352.10428" /><rect
     style="opacity:1;fill:#fefefe;fill-opacity:1;stroke:none;stroke-width:1.03923988;stroke-miterlimit:4;stroke-dasharray:none;stroke-opacity:1"
     id="rect1078-6-7"
     width="38.870007"
     height="2.8044231"
     x="289.10989"
     y="352.10428" /><rect
     style="opacity:1;fill:#fefefe;fill-opacity:1;stroke:none;stroke-width:1.03923988;stroke-miterlimit:4;stroke-dasharray:none;stroke-opacity:1"
     id="rect1078-6-5"
     width="38.870007"
     height="2.8044231"
     x="384.16476"
     y="352.10428" /><rect
     style="opacity:1;fill:#fefefe;fill-opacity:1;stroke:none;stroke-width:1.03923988;stroke-miterlimit:4;stroke-dasharray:none;stroke-opacity:1"
     id="rect1078-6-3"
     width="38.870007"
     height="2.8044231"
     x="479.21957"
     y="352.10428" /></g></g>
</svg>