<?xml version="1.0" encoding="UTF-8" standalone="no"?>
<svg
   xmlns:svg="http://www.w3.org/2000/svg"
   xmlns="http://www.w3.org/2000/svg"
   viewBox="0 0 831.50665 831.50665"
   height="831.50665"
   width="831.50665"
   xml:space="preserve"
   id="svg2"
   version="1.1"><g
     transform="matrix(1.3333333,0,0,-1.3333333,0,831.50667)"
     id="g10"><path
       d="m 232.946,412.33 c 8.851,-3.647 14.419,-7.954 16.119,-12.48 1.002,-2.698 0.712,-5.59 -0.9,-8.825 -0.831,-1.652 -0.163,-3.655 1.498,-4.481 0.479,-0.247 0.989,-0.361 1.49,-0.361 1.226,0 2.403,0.686 2.993,1.855 1.244,2.495 1.959,4.939 2.145,7.338 0.175,2.329 -0.137,4.605 -0.968,6.82 -1.648,4.404 -5.317,8.377 -10.959,11.875 3.88,1.837 5.77,4.561 6.666,6.494 2.782,5.986 1.103,14.169 -4.588,23.177 9.369,-1.687 16.335,-0.483 21.12,3.648 5.032,4.324 7.264,11.479 6.759,21.718 8.007,-5.774 14.128,-5.95 18.141,-4.817 4.491,1.283 8.191,4.703 10.819,9.87 1.494,-2.215 3.56,-4.376 6.345,-5.765 2.98,-1.477 6.29,-1.846 9.88,-1.151 1.846,0.36 3.774,0.984 5.779,1.933 1.673,0.782 2.385,2.777 1.608,4.447 -0.791,1.679 -2.791,2.382 -4.456,1.609 -3.911,-1.855 -7.221,-2.137 -9.8,-0.853 -4.83,2.373 -6.407,9.404 -6.421,9.457 -0.32,1.538 -1.665,2.646 -3.234,2.663 -1.555,-0.035 -2.94,-1.055 -3.296,-2.575 -1.723,-7.339 -4.944,-12.015 -9.057,-13.192 -4.719,-1.336 -11.166,1.793 -18.184,8.807 -1.025,1.027 -2.593,1.282 -3.89,0.614 -1.292,-0.658 -2.003,-2.073 -1.779,-3.515 1.986,-12.287 0.786,-20.418 -3.578,-24.179 -4.28,-3.691 -12.353,-3.683 -23.976,0.018 -1.416,0.457 -2.975,-0.088 -3.802,-1.327 -0.83,-1.239 -0.733,-2.875 0.234,-4.017 9.667,-11.487 11.152,-19.801 9.312,-23.748 -1.776,-3.814 -6.826,-4.614 -10.736,-4.614 -1.6,0 -2.976,-1.134 -3.288,-2.699 -0.311,-1.564 0.527,-3.137 2.004,-3.744"
       style="fill:#8c8c8c;fill-opacity:1;fill-rule:nonzero;stroke:none;stroke-width:0.1"
       id="path14" /><path
       d="m 156.015,413.446 c 0.212,0 0.413,0.026 0.62,0.026 13.557,0.343 24.491,11.444 24.491,25.085 0,13.86 -11.259,25.119 -25.111,25.119 -13.851,0 -25.119,-11.259 -25.119,-25.119 0,-7.813 3.591,-14.81 9.212,-19.415 4.341,-3.56 9.874,-5.696 15.907,-5.696"
       style="fill:#8c8c8c;fill-opacity:1;fill-rule:nonzero;stroke:none;stroke-width:0.1"
       id="path16" /><path
       d="m 545.714,250.638 c -5.234,-12.129 -14.88,-21.498 -27.158,-26.376 -5.867,-2.329 -12.011,-3.515 -18.255,-3.515 -19.208,0 -36.321,10.854 -44.551,27.94 l 47.807,18.984 c 3.397,1.353 5.054,5.204 3.7,8.596 -1.353,3.402 -5.198,5.062 -8.591,3.709 l -47.061,-18.694 c -1.788,9.571 -0.708,19.44 3.244,28.564 5.224,12.146 14.879,21.515 27.166,26.393 5.858,2.329 12.002,3.508 18.255,3.508 20.408,0 38.461,-12.252 45.998,-31.228 4.886,-12.288 4.689,-25.734 -0.554,-37.881 z m -127.938,1.257 -19.745,5.827 c -0.844,9.238 -1.766,18.14 -2.588,23.335 1.767,5.423 10.398,11.68 25.378,27.923 z m -48.634,25.98 c 0.435,-2.426 0.966,-6.793 1.512,-12.076 l -50.595,14.923 -0.255,28.354 18.334,4.633 c 3.542,0.905 5.686,4.49 4.795,8.041 -0.761,2.997 -3.45,4.975 -6.407,4.975 3.313,5.747 7.123,12.366 9.013,15.68 2.211,3.875 5.906,16.611 9.118,28.643 19.542,-11.347 41.019,-28.977 45.277,-36.641 0.018,-0.098 0.044,-0.203 0.061,-0.308 -33.697,-40.517 -31.671,-51.776 -30.853,-56.224 z m -48.314,-81.483 -0.448,49.025 c 17.802,-2.197 33.047,-13.79 39.819,-30.814 10.068,-25.356 -2.364,-54.184 -27.73,-64.257 -5.858,-2.329 -11.997,-3.516 -18.25,-3.516 -20.404,0 -38.466,12.27 -45.998,31.236 -10.076,25.357 2.356,54.185 27.707,64.257 3.644,1.442 7.401,2.391 11.212,2.945 l 0.452,-48.991 c 0.026,-3.647 2.979,-6.556 6.614,-6.556 0.013,0 0.035,0 0.057,0 3.656,0.026 6.587,3.015 6.565,6.671 z m -82.81,-59.678 c -4.03,-4.526 -8.697,-6.82 -13.883,-6.82 -17.187,0 -34.58,24.785 -37.977,54.106 -1.886,16.329 0.848,31.754 7.203,41.739 l 9.087,-43.84 c 0.651,-3.147 3.419,-5.309 6.509,-5.309 0.444,0 0.901,0.044 1.354,0.141 3.599,0.747 5.91,4.271 5.167,7.857 l -10.591,51.117 c 1.723,0.58 3.512,0.888 5.37,0.888 17.196,0 34.595,-24.777 37.987,-54.106 2.158,-18.729 -1.754,-36.263 -10.226,-45.773 z M 150.637,324.73 c -1.508,16.963 2.29,38.241 7.8,54.694 7.255,-15.003 20.008,-38.171 35.156,-52.005 -3.304,0.088 -6.798,0.14 -10.52,0.14 -14.77,0 -24.614,-1.054 -32.436,-2.829 z m 2.61,-13.052 c 5.634,1.327 12.432,2.171 22.025,2.452 -0.021,-0.536 0,-1.081 0.119,-1.635 l 2.624,-12.7 -21.164,4.456 c -0.11,0.176 -0.194,0.36 -0.312,0.527 -1.345,2.013 -2.408,4.369 -3.292,6.9 z m 20.725,-58.729 -15.297,-27.623 -10.692,47.768 c 0.848,0.422 1.692,0.861 2.491,1.406 1.934,1.283 3.587,2.821 4.962,4.544 l 24.759,-5.212 z m -33.623,-35.041 c 1.235,4.535 2.426,8.956 3.48,12.858 l 3.288,-14.687 z m -24.095,6.53 -14.977,4.06 c -3.5457,0.95 -7.1977,-1.142 -8.1645,-4.684 -0.9492,-3.551 1.1422,-7.208 4.6934,-8.165 l 14.9541,-4.052 c -2.852,-10.433 -5.198,-18.958 -5.251,-19.16 -1.345,-4.878 0.431,-9.871 4.087,-12.893 -1.942,-1.047 -3.999,-1.601 -6.179,-1.601 -14.0623,0 -28.3182,20.558 -31.1307,44.895 -1.8105,15.565 1.4149,30.111 8.3934,37.942 3.2164,3.604 6.9086,5.424 10.9863,5.424 10.323,0 20.742,-11.11 26.675,-26.666 -1.169,-4.351 -2.602,-9.642 -4.087,-15.1 z m 442.323,68.967 c -9.554,24.038 -32.445,39.587 -58.307,39.587 -7.937,0 -15.723,-1.503 -23.145,-4.448 -15.566,-6.188 -27.805,-18.07 -34.441,-33.442 -5.343,-12.392 -6.468,-25.849 -3.503,-38.751 l -8.085,-3.208 3.744,70.145 c 0.98,1.082 1.788,2.18 2.448,3.358 l 12.45,4.939 c 3.392,1.345 5.057,5.195 3.704,8.596 -1.345,3.401 -5.199,5.053 -8.592,3.709 l -5.721,-2.268 c -2.021,12.173 -11.945,24.997 -31.333,40.755 -14.598,11.874 -32.941,23.705 -46.714,30.147 -3.335,1.555 -6.86,2.091 -10.27,1.775 -2.118,-9.44 -8.345,-17.772 -17.495,-22.298 0.335,-1.265 0.677,-2.452 0.555,-3.884 -0.757,-21.956 -2.101,-34.761 -3.477,-37.258 -3.525,-6.187 -12.933,-26.234 -13.113,-26.56 -0.466,-0.764 -0.743,-1.6 -0.91,-2.435 l -4.856,-1.221 c -2.957,-0.747 -5.023,-3.419 -5.001,-6.477 l 0.501,-55.547 c -5.445,-0.633 -10.797,-1.935 -15.974,-3.991 -18.989,-7.549 -32.19,-23.414 -37.235,-41.739 -9.522,22.07 -26.019,37.01 -43.55,37.01 -2.777,0 -5.475,-0.413 -8.085,-1.142 l -1.393,6.759 7.198,24.179 c 0.992,3.34 0.549,6.952 -1.239,9.94 -1.781,2.997 -4.734,5.115 -8.139,5.836 l -6.372,1.336 -3.613,17.411 c 26.93,-0.369 41.164,-3.313 41.309,-3.34 3.59,-0.773 7.132,1.512 7.897,5.106 0.769,3.595 -1.512,7.128 -5.111,7.893 -0.246,0.062 -2.624,0.554 -7.018,1.161 -0.303,4.28 -3.735,7.751 -8.121,7.945 -8.978,0.395 -30.112,20.927 -48.968,65.39 -1.073,2.523 -3.23,4.228 -5.686,4.887 -0.432,1.529 -1.02,3.006 -1.759,4.412 -1.683,-0.29 -3.388,-0.465 -5.142,-0.465 -9.087,0 -17.252,3.91 -22.987,10.098 -4.856,-2.153 -8.943,-6.055 -11.202,-11.321 -9.474,-22.077 -21.375,-67.016 -11.487,-103.227 -2.286,-0.343 -4.329,-1.837 -5.221,-4.131 -1.344,-3.428 0.343,-7.286 3.766,-8.622 l 5.291,-2.074 c 0.088,-0.826 0.247,-1.661 0.511,-2.487 2.033,-6.557 3.867,-13.421 5.277,-19.477 -7.567,8.464 -16.752,13.544 -26.297,13.544 -7.9234,0 -15.1523,-3.419 -20.9133,-9.879 -9.5714,-10.749 -13.9437,-28.81 -11.6937,-48.322 3.6863,-31.782 23.1723,-56.672 44.358,-56.672 7.915,0 15.148,3.419 20.914,9.879 6.499,7.295 10.533,18.008 11.786,30.217 l 16.154,-4.377 c 0.066,-0.018 0.123,-0.009 0.18,-0.027 0.51,-0.122 1.029,-0.202 1.556,-0.202 0.488,0 0.976,0.053 1.463,0.158 0.057,0.018 0.115,0.044 0.176,0.053 0.128,0.035 0.259,0.096 0.392,0.141 0.378,0.114 0.747,0.272 1.102,0.457 0.141,0.07 0.273,0.149 0.401,0.228 0.373,0.246 0.729,0.51 1.053,0.826 0.058,0.054 0.142,0.097 0.198,0.168 0.365,0.377 0.682,0.808 0.955,1.274 0.021,0.044 0.061,0.079 0.082,0.132 l 8.754,15.785 c 1.231,-1.275 2.743,-2.303 4.487,-2.979 -2.724,-10.117 -3.532,-21.753 -2.131,-33.891 4.276,-36.949 26.763,-65.892 51.196,-65.892 9.018,0 17.24,3.894 23.81,11.277 7.418,8.314 12.107,20.46 13.64,34.373 11.392,-17.692 30.951,-28.643 52.634,-28.643 7.932,0 15.719,1.494 23.142,4.447 32.141,12.771 47.904,49.306 35.139,81.448 -8.799,22.14 -28.908,37.038 -52.238,39.261 l -0.08,8.13 51.807,-15.284 c 0.98,-11.136 1.877,-22.711 2.32,-28.889 0.528,-7.296 6.869,-12.78 14.16,-12.244 1.389,0.096 2.715,0.404 3.933,0.888 5.229,2.083 8.75,7.356 8.319,13.263 -0.136,1.872 -0.703,9.588 -1.468,18.94 l 22.812,-6.733 c 0.031,-0.008 0.052,0 0.075,-0.008 0.47,-0.132 0.945,-0.228 1.445,-0.255 0.114,-0.009 0.233,-0.009 0.357,-0.009 0.065,0 0.123,0.017 0.18,0.027 0.364,0.009 0.73,0.035 1.072,0.096 0.272,0.053 0.545,0.149 0.813,0.238 0.123,0.044 0.255,0.061 0.378,0.114 l 0.026,0.009 0.017,0.017 17.012,6.741 c 10.275,-22.139 32.199,-36.281 56.861,-36.281 7.923,0 15.714,1.494 23.141,4.438 15.566,6.197 27.8,18.071 34.431,33.46 6.636,15.381 6.883,32.424 0.704,47.997"
       style="fill:#8c8c8c;fill-opacity:1;fill-rule:nonzero;stroke:none;stroke-width:0.1"
       id="path18" /><path
       d="m 309.051,445.826 c -13.447,-5.345 -20.044,-20.637 -14.708,-34.076 5.352,-13.456 20.632,-20.057 34.084,-14.722 13.455,5.353 20.052,20.646 14.716,34.094 -5.352,13.446 -20.64,20.047 -34.092,14.704"
       style="fill:#8c8c8c;fill-opacity:1;fill-rule:nonzero;stroke:none;stroke-width:0.1"
       id="path20" /></g></svg>